# xmcd
#
# Track frame offsets: 
#        150
#        15453
#        29423
#        42626
#        56500
#        70889
#        86097
#        101208
#        110834
#        120462
#        136479
#        152967
#
# Disc length: 2239 seconds
#
# Revision: 4
# Processed by: cddbd v1.5.2PL0 Copyright (c) Steve Scherf et al.
# Submitted via: ExactAudioCopyFreeDBPlugin 1.0
#
DISCID=ab08bd0c
DTITLE=Muddy Waters - Nothing But The Blues
DYEAR=1900
DGENRE=Blues
TTITLE0=Country Blues
TTITLE1=I Be's Troubled
TTITLE2=Burr Clover Farm Blues
TTITLE3=Take A Walk With Me
TTITLE4=Burr Clover Blues
TTITLE5=I Be Bound To Write To You
TTITLE6=You're Gonna Miss Me When I'm Gone
TTITLE7=You Got To Take Sick And Die Some Of These Days
TTITLE8=Why Don't You Live So God Can Use You
TTITLE9=Country Blues
TTITLE10=You're Gonna Miss Me When Im Gone
TTITLE11=32-20 Blues
EXTD=
EXTT0=
EXTT1=
EXTT2=
EXTT3=
EXTT4=
EXTT5=
EXTT6=
EXTT7=
EXTT8=
EXTT9=
EXTT10=
EXTT11=
PLAYORDER=
